# xmcd
#
# Track frame offsets: 
#        150
#        7335
#        17374
#        25685
#        37402
#        45439
#        56860
#        67671
#        77475
#        88210
#        97429
#        108713
#        110028
#        119460
#        129948
#        140164
#        149063
#        158799
#        169873
#        178608
#
# Disc length: 2515 seconds
#
# Revision: 0
# Processed by: cddbd v1.5.2PL0 Copyright (c) Steve Scherf et al.
# Submitted via: ExactAudioCopy v0.95b4
#
DISCID=2509d114
DTITLE=Various Artist - Rhythm and Blues Goes Rock'n'Roll Vol.2 CD3
DYEAR=2002
DGENRE=Blues
TTITLE0=Dave Barton - Bookies blues
TTITLE1=Micky Cooper - Country girl
TTITLE2=George Jenkins - Shufflin' boogie
TTITLE3=Max Bailey - Leave it alone
TTITLE4=The Kid - Booted
TTITLE5=Rufus Thomas - Crazy about you baby
TTITLE6=Austin Wright - Keep me on your mind
TTITLE7=McKinley Mitchell - Rock everybody rock
TTITLE8=Rich McQueen - Who's that under my bed
TTITLE9=Joe McCoy - Hey Loretta
TTITLE10=John Bullard - Mary Lou
TTITLE11=Frank Linkenberg - Ball of fire
TTITLE12=Calvin Johnson - Unsatisfied mind
TTITLE13=Jesse Allen - Love me baby
TTITLE14=Johnny Green - Little Eva
TTITLE15=Artie Wilson - Tarzan
TTITLE16=Georgia Lane - Get it
TTITLE17=Lorenzo Holden - Whipped cream
TTITLE18=Bill Heyman - I want my baby
TTITLE19=Joe McCoy - Too much going on
EXTD=
EXTT0=
EXTT1=
EXTT2=
EXTT3=
EXTT4=
EXTT5=
EXTT6=
EXTT7=
EXTT8=
EXTT9=
EXTT10=
EXTT11=
EXTT12=
EXTT13=
EXTT14=
EXTT15=
EXTT16=
EXTT17=
EXTT18=
EXTT19=
PLAYORDER=
